<?xml version="1.0" encoding="utf-8"?>
<svg width="15px" height="15px" viewBox="0 0 15 15" version="1.1" xmlns:xlink="http://www.w3.org/1999/xlink" xmlns="http://www.w3.org/2000/svg">
  <desc>Created with Lunacy</desc>
  <path d="M8.59037 8.59037L14.001 8.59037Q14.0994 8.59037 14.1959 8.57118Q14.2924 8.55198 14.3833 8.51433Q14.4742 8.47667 14.556 8.42201Q14.6378 8.36735 14.7074 8.29777Q14.777 8.2282 14.8316 8.14639Q14.8863 8.06458 14.924 7.97367Q14.9616 7.88277 14.9808 7.78627Q15 7.68977 15 7.59137L15 7.40863Q15 7.31023 14.9808 7.21373Q14.9616 7.11723 14.924 7.02633Q14.8863 6.93542 14.8316 6.85361Q14.777 6.7718 14.7074 6.70223Q14.6378 6.63265 14.556 6.57799Q14.4742 6.52332 14.3833 6.48567Q14.2924 6.44802 14.1959 6.42882Q14.0994 6.40963 14.001 6.40963L8.59037 6.40963L8.59037 0.999Q8.59037 0.900607 8.57118 0.804105Q8.55198 0.707602 8.51433 0.616699Q8.47667 0.525796 8.42201 0.443985Q8.36735 0.362175 8.29777 0.2926Q8.2282 0.223026 8.14639 0.168362Q8.06458 0.113698 7.97367 0.0760443Q7.88277 0.038391 7.78627 0.0191955Q7.68977 0 7.59137 0L7.40863 0Q7.31023 0 7.21373 0.0191955Q7.11723 0.038391 7.02633 0.0760443Q6.93542 0.113698 6.85361 0.168362Q6.7718 0.223026 6.70223 0.2926Q6.63265 0.362175 6.57799 0.443985Q6.52332 0.525796 6.48567 0.616699Q6.44802 0.707602 6.42882 0.804105Q6.40963 0.900607 6.40963 0.999L6.40963 6.40963L0.999 6.40963Q0.900607 6.40963 0.804105 6.42882Q0.707602 6.44802 0.616699 6.48567Q0.525796 6.52332 0.443985 6.57799Q0.362175 6.63265 0.2926 6.70223Q0.223026 6.7718 0.168362 6.85361Q0.113698 6.93542 0.0760443 7.02633Q0.038391 7.11723 0.0191955 7.21373Q0 7.31023 0 7.40863L0 7.59137Q0 7.68977 0.0191955 7.78627Q0.038391 7.88277 0.0760443 7.97367Q0.113698 8.06458 0.168362 8.14639Q0.223026 8.2282 0.2926 8.29777Q0.362175 8.36735 0.443985 8.42201Q0.525796 8.47667 0.616699 8.51433Q0.707602 8.55198 0.804105 8.57118Q0.900607 8.59037 0.999 8.59037L6.40963 8.59037L6.40963 14.001Q6.40963 14.0994 6.42882 14.1959Q6.44802 14.2924 6.48567 14.3833Q6.52332 14.4742 6.57799 14.556Q6.63265 14.6378 6.70223 14.7074Q6.7718 14.777 6.85361 14.8316Q6.93542 14.8863 7.02633 14.924Q7.11723 14.9616 7.21373 14.9808Q7.31023 15 7.40863 15L7.59137 15Q7.68977 15 7.78627 14.9808Q7.88277 14.9616 7.97367 14.924Q8.06458 14.8863 8.14639 14.8316Q8.2282 14.777 8.29777 14.7074Q8.36735 14.6378 8.42201 14.556Q8.47667 14.4742 8.51433 14.3833Q8.55198 14.2924 8.57118 14.1959Q8.59037 14.0994 8.59037 14.001L8.59037 8.59037Z" id="Add_Pic" fill="#B8B7B7" fill-rule="evenodd" stroke="none" />
</svg>