<?xml version="1.0" encoding="utf-8"?>
<svg width="19px" height="19px" viewBox="0 0 19 19" version="1.1" xmlns:xlink="http://www.w3.org/1999/xlink" xmlns="http://www.w3.org/2000/svg">
  <desc>Created with Lunacy</desc>
  <g id="Emojis_Icon" transform="translate(0.5 0.5)">
    <path d="M8.88178e-16 0C8.88178e-16 0 1.31886 2.64045 4.38891 2.63548C7.45897 2.63052 8.63174 0.0199879 8.63174 0.0199879" transform="translate(4.644348 11.252343)" id="Path" fill="none" fill-rule="evenodd" stroke="#B8B7B7" stroke-width="1" stroke-linecap="round" />
    <path d="M0.909091 1.81818C1.41117 1.81818 1.81818 1.41117 1.81818 0.909091C1.81818 0.407014 1.41117 0 0.909091 0C0.407014 0 0 0.407014 0 0.909091C0 1.41117 0.407014 1.81818 0.909091 1.81818Z" transform="translate(10.727162 5.7928762)" id="Path" fill="#B8B7B7" fill-rule="evenodd" stroke="#B8B7B7" stroke-width="0.5" />
    <path d="M0.909091 1.81818C1.41117 1.81818 1.81818 1.41117 1.81818 0.909091C1.81818 0.407014 1.41117 0 0.909091 0C0.407014 0 0 0.407014 0 0.909091C0 1.41117 0.407014 1.81818 0.909091 1.81818Z" transform="translate(5.2726173 5.7928762)" id="Path" fill="#B8B7B7" fill-rule="evenodd" stroke="#B8B7B7" stroke-width="0.5" />
    <path d="M9 18C13.9706 18 18 13.9706 18 9C18 4.02944 13.9706 0 9 0C4.02944 0 0 4.02944 0 9C0 13.9706 4.02944 18 9 18Z" id="Oval-203" fill="none" fill-rule="evenodd" stroke="#B8B7B7" stroke-width="1" />
  </g>
</svg>