<?xml version="1.0" encoding="utf-8"?>
<svg width="24px" height="16px" viewBox="0 0 24 16" version="1.1" xmlns:xlink="http://www.w3.org/1999/xlink" xmlns="http://www.w3.org/2000/svg">
  <desc>Created with Lunacy</desc>
  <g id="Menu-Icon">
    <path d="M0.999 0L13.001 0Q13.0994 0 13.1959 0.0191955Q13.2924 0.038391 13.3833 0.0760443Q13.4742 0.113698 13.556 0.168362Q13.6378 0.223026 13.7074 0.2926Q13.777 0.362175 13.8316 0.443985Q13.8863 0.525796 13.924 0.616699Q13.9616 0.707602 13.9808 0.804105Q14 0.900607 14 0.999L14 1.001Q14 1.09939 13.9808 1.1959Q13.9616 1.2924 13.924 1.3833Q13.8863 1.4742 13.8316 1.55601Q13.777 1.63783 13.7074 1.7074Q13.6378 1.77697 13.556 1.83164Q13.4742 1.8863 13.3833 1.92396Q13.2924 1.96161 13.1959 1.9808Q13.0994 2 13.001 2L0.999 2Q0.900607 2 0.804105 1.9808Q0.707602 1.96161 0.616699 1.92396Q0.525796 1.8863 0.443985 1.83164Q0.362175 1.77697 0.2926 1.7074Q0.223026 1.63783 0.168362 1.55601Q0.113698 1.4742 0.0760443 1.3833Q0.038391 1.2924 0.0191955 1.1959Q0 1.09939 0 1.001L0 0.999Q0 0.900607 0.0191955 0.804105Q0.038391 0.707602 0.0760443 0.616699Q0.113698 0.525796 0.168362 0.443985Q0.223026 0.362175 0.2926 0.2926Q0.362175 0.223026 0.443985 0.168362Q0.525796 0.113698 0.616699 0.0760443Q0.707602 0.038391 0.804105 0.0191955Q0.900607 0 0.999 0L0.999 0Z" transform="translate(5 0)" id="Rectangle-2" fill="#3D3D3D" fill-rule="evenodd" stroke="none" />
    <path d="M0.999 0L13.001 0Q13.0994 0 13.1959 0.0191955Q13.2924 0.038391 13.3833 0.0760443Q13.4742 0.113698 13.556 0.168362Q13.6378 0.223026 13.7074 0.2926Q13.777 0.362175 13.8316 0.443985Q13.8863 0.525796 13.924 0.616699Q13.9616 0.707602 13.9808 0.804105Q14 0.900607 14 0.999L14 1.001Q14 1.09939 13.9808 1.1959Q13.9616 1.2924 13.924 1.3833Q13.8863 1.4742 13.8316 1.55601Q13.777 1.63783 13.7074 1.7074Q13.6378 1.77697 13.556 1.83164Q13.4742 1.8863 13.3833 1.92396Q13.2924 1.96161 13.1959 1.9808Q13.0994 2 13.001 2L0.999 2Q0.900607 2 0.804105 1.9808Q0.707602 1.96161 0.616699 1.92396Q0.525796 1.8863 0.443985 1.83164Q0.362175 1.77697 0.2926 1.7074Q0.223026 1.63783 0.168362 1.55601Q0.113698 1.4742 0.0760443 1.3833Q0.038391 1.2924 0.0191955 1.1959Q0 1.09939 0 1.001L0 0.999Q0 0.900607 0.0191955 0.804105Q0.038391 0.707602 0.0760443 0.616699Q0.113698 0.525796 0.168362 0.443985Q0.223026 0.362175 0.2926 0.2926Q0.362175 0.223026 0.443985 0.168362Q0.525796 0.113698 0.616699 0.0760443Q0.707602 0.038391 0.804105 0.0191955Q0.900607 0 0.999 0L0.999 0Z" transform="translate(5 14)" id="Rectangle-2-Copy-2" fill="#3D3D3D" fill-rule="evenodd" stroke="none" />
    <path d="M0.999 0L19.001 0Q19.0994 0 19.1959 0.0191955Q19.2924 0.038391 19.3833 0.0760443Q19.4742 0.113698 19.556 0.168362Q19.6378 0.223026 19.7074 0.2926Q19.777 0.362175 19.8316 0.443985Q19.8863 0.525796 19.924 0.616699Q19.9616 0.707602 19.9808 0.804105Q20 0.900607 20 0.999L20 1.001Q20 1.09939 19.9808 1.1959Q19.9616 1.2924 19.924 1.3833Q19.8863 1.4742 19.8316 1.55601Q19.777 1.63783 19.7074 1.7074Q19.6378 1.77697 19.556 1.83164Q19.4742 1.8863 19.3833 1.92396Q19.2924 1.96161 19.1959 1.9808Q19.0994 2 19.001 2L0.999 2Q0.900607 2 0.804105 1.9808Q0.707602 1.96161 0.616699 1.92396Q0.525796 1.8863 0.443985 1.83164Q0.362175 1.77697 0.2926 1.7074Q0.223026 1.63783 0.168362 1.55601Q0.113698 1.4742 0.0760443 1.3833Q0.038391 1.2924 0.0191955 1.1959Q0 1.09939 0 1.001L0 0.999Q0 0.900607 0.0191955 0.804105Q0.038391 0.707602 0.0760443 0.616699Q0.113698 0.525796 0.168362 0.443985Q0.223026 0.362175 0.2926 0.2926Q0.362175 0.223026 0.443985 0.168362Q0.525796 0.113698 0.616699 0.0760443Q0.707602 0.038391 0.804105 0.0191955Q0.900607 0 0.999 0Z" transform="translate(2 7)" id="Rectangle-2-Copy" fill="#3D3D3D" fill-rule="evenodd" stroke="none" />
  </g>
</svg>