<?xml version="1.0" encoding="utf-8"?>
<svg width="21px" height="5px" viewBox="0 0 21 5" version="1.1" xmlns:xlink="http://www.w3.org/1999/xlink" xmlns="http://www.w3.org/2000/svg">
  <desc>Created with Lunacy</desc>
  <g id="Options-Icon">
    <path d="M2.5 5C3.88071 5 5 3.88071 5 2.5C5 1.11929 3.88071 0 2.5 0C1.11929 0 0 1.11929 0 2.5C0 3.88071 1.11929 5 2.5 5Z" id="Oval-2" fill="#3D3D3D" fill-rule="evenodd" stroke="none" />
    <path d="M2.5 5C3.88071 5 5 3.88071 5 2.5C5 1.11929 3.88071 0 2.5 0C1.11929 0 0 1.11929 0 2.5C0 3.88071 1.11929 5 2.5 5Z" transform="translate(8 0)" id="Oval-2-Copy" fill="#3D3D3D" fill-rule="evenodd" stroke="none" />
    <path d="M2.5 5C3.88071 5 5 3.88071 5 2.5C5 1.11929 3.88071 0 2.5 0C1.11929 0 0 1.11929 0 2.5C0 3.88071 1.11929 5 2.5 5Z" transform="translate(16 0)" id="Oval-2-Copy-2" fill="#3D3D3D" fill-rule="evenodd" stroke="none" />
  </g>
</svg>